<svg width="200" height="200" viewBox="0 0 200 200" fill="none" xmlns="http://www.w3.org/2000/svg">
<rect width="200" height="200" fill="#E7F256"/>
<path d="M67.483 70C71.4773 70 75.1212 70.5781 78.4148 71.7344C81.7434 72.8906 84.7391 74.3973 87.402 76.2543C90.0999 78.0762 92.465 79.9683 94.4972 81.9304C95.6184 82.9815 96.6345 84.0152 97.5455 85.0313C98.4564 86.0474 99.3324 87.0635 100.173 88.0795C100.944 87.0635 101.732 86.0824 102.538 85.1364C103.379 84.1553 104.43 83.0866 105.692 81.9304C108.74 78.9522 112.524 76.2192 117.044 73.7315C121.599 71.2438 126.872 70 132.864 70C138.47 70 143.568 71.3665 148.158 74.0994C152.783 76.7974 156.444 80.4238 159.142 84.9787C161.875 89.5336 163.241 94.5791 163.241 100.115C163.241 104.32 162.453 108.261 160.876 111.94C159.3 115.584 157.127 118.79 154.359 121.558C151.591 124.291 148.368 126.446 144.689 128.023C141.01 129.564 137.068 130.335 132.864 130.335C128.869 130.335 125.19 129.775 121.827 128.653C118.498 127.497 115.485 126.026 112.787 124.239C110.124 122.452 107.777 120.612 105.744 118.72C104.588 117.564 103.554 116.478 102.643 115.462C101.768 114.411 100.944 113.377 100.173 112.361C99.2974 113.377 98.4039 114.411 97.4929 115.462C96.5819 116.513 95.5658 117.599 94.4446 118.72C92.4474 120.612 90.0999 122.452 87.402 124.239C84.7391 125.991 81.7434 127.445 78.4148 128.601C75.1212 129.757 71.4773 130.335 67.483 130.335C61.8068 130.335 56.6738 128.986 52.0838 126.288C47.4938 123.59 43.8324 119.964 41.0994 115.409C38.3665 110.819 37 105.721 37 100.115C37 95.9456 37.7708 92.0564 39.3125 88.4474C40.8892 84.8035 43.0616 81.5975 45.8295 78.8295C48.6326 76.0616 51.8736 73.9067 55.5526 72.3651C59.2666 70.7884 63.2434 70 67.483 70ZM51.5057 100.115C51.5057 103.023 52.224 105.669 53.6605 108.051C55.0971 110.434 57.0241 112.326 59.4418 113.727C61.8594 115.129 64.5398 115.83 67.483 115.83C70.7765 115.83 73.8073 115.094 76.5753 113.622C79.3433 112.151 81.9186 110.294 84.3011 108.051C85.8078 106.615 87.1042 105.231 88.1903 103.899C89.2765 102.568 90.2225 101.306 91.0284 100.115C90.1875 98.9939 89.1889 97.75 88.0327 96.3835C86.9115 94.982 85.6676 93.6506 84.3011 92.3892C82.0587 90.1818 79.5185 88.3248 76.6804 86.8182C73.8423 85.2765 70.7765 84.5057 67.483 84.5057C64.5398 84.5057 61.8594 85.224 59.4418 86.6605C57.0241 88.062 55.0971 89.9541 53.6605 92.3367C52.224 94.6842 51.5057 97.277 51.5057 100.115ZM148.631 100.115C148.631 97.277 147.912 94.6842 146.476 92.3367C145.074 89.9541 143.182 88.062 140.8 86.6605C138.417 85.224 135.772 84.5057 132.864 84.5057C130.621 84.5057 128.484 84.8561 126.452 85.5568C124.42 86.2576 122.51 87.2036 120.723 88.3949C118.971 89.5862 117.359 90.9176 115.888 92.3892C114.311 93.8608 112.927 95.3674 111.736 96.9091C110.545 98.4157 109.686 99.4844 109.161 100.115C110.036 101.341 111.018 102.62 112.104 103.952C113.19 105.248 114.451 106.615 115.888 108.051C118.235 110.294 120.793 112.151 123.561 113.622C126.364 115.094 129.465 115.83 132.864 115.83C135.772 115.83 138.417 115.129 140.8 113.727C143.182 112.326 145.074 110.434 146.476 108.051C147.912 105.669 148.631 103.023 148.631 100.115Z" fill="black"/>
</svg>
